<svg version="1.1" xmlns="http://www.w3.org/2000/svg" xmlns:xlink="http://www.w3.org/1999/xlink" width="612" height="409"><defs/><g><g transform="translate(-278,-230) scale(1,1)"><rect fill="#C0C0C0" stroke="none" x="639" y="335" width="248" height="301" opacity="0.2"/></g><g transform="translate(-278,-230) scale(1,1)"><rect fill="#ffffff" stroke="none" x="632" y="328" width="248" height="301"/></g><g transform="translate(-278,-230) scale(1,1)"><path fill="none" stroke="#000000" d="M 632 328 L 880 328 L 880 629 L 632 629 L 632 328 Z Z" stroke-miterlimit="10"/></g><g transform="translate(-278,-230) scale(1,1)"><path fill="none" stroke="#000000" d="M 632 366 L 880 366" stroke-miterlimit="10"/></g><g transform="translate(-278,-230) scale(1,1)"><path fill="none" stroke="#000000" d="M 632 449 L 880 449" stroke-miterlimit="10"/></g><g transform="translate(-278,-230) scale(1,1)"><g><path fill="none" stroke="none"/><text fill="#000000" stroke="none" font-family="Arial" font-size="13px" font-style="normal" font-weight="normal" text-decoration="none" x="725.648681640625" y="345.5">«abstract»</text></g></g><g transform="translate(-278,-230) scale(1,1)"><g><path fill="none" stroke="none"/><text fill="#000000" stroke="none" font-family="Arial" font-size="13px" font-style="normal" font-weight="bold" text-decoration="none" x="727.095947265625" y="360.5">Employee</text></g></g><g transform="translate(-278,-230) scale(1,1)"><g><path fill="none" stroke="none"/><text fill="#000000" stroke="none" font-family="Arial" font-size="13px" font-style="normal" font-weight="normal" text-decoration="none" x="637" y="383.5">-id: int</text></g></g><g transform="translate(-278,-230) scale(1,1)"><g><path fill="none" stroke="none"/><text fill="#000000" stroke="none" font-family="Arial" font-size="13px" font-style="normal" font-weight="normal" text-decoration="none" x="637" y="398.5">-name: String</text></g></g><g transform="translate(-278,-230) scale(1,1)"><g><path fill="none" stroke="none"/><text fill="#000000" stroke="none" font-family="Arial" font-size="13px" font-style="normal" font-weight="normal" text-decoration="none" x="637" y="413.5">-surName: String</text></g></g><g transform="translate(-278,-230) scale(1,1)"><g><path fill="none" stroke="none"/><text fill="#000000" stroke="none" font-family="Arial" font-size="13px" font-style="normal" font-weight="normal" text-decoration="none" x="637" y="428.5">-age: int</text></g></g><g transform="translate(-278,-230) scale(1,1)"><g><path fill="none" stroke="none"/><text fill="#000000" stroke="none" font-family="Arial" font-size="13px" font-style="normal" font-weight="normal" text-decoration="none" x="637" y="443.5">-salary: int</text></g></g><g transform="translate(-278,-230) scale(1,1)"><g><path fill="none" stroke="none"/><text fill="#000000" stroke="none" font-family="Arial" font-size="13px" font-style="normal" font-weight="normal" text-decoration="none" x="637" y="466.5">-setId(id: int): void</text></g></g><g transform="translate(-278,-230) scale(1,1)"><g><path fill="none" stroke="none"/><text fill="#000000" stroke="none" font-family="Arial" font-size="13px" font-style="normal" font-weight="normal" text-decoration="none" x="637" y="481.5">+getId(): int</text></g></g><g transform="translate(-278,-230) scale(1,1)"><g><path fill="none" stroke="none"/><text fill="#000000" stroke="none" font-family="Arial" font-size="13px" font-style="normal" font-weight="normal" text-decoration="none" x="637" y="496.5">+setName(name: String): void</text></g></g><g transform="translate(-278,-230) scale(1,1)"><g><path fill="none" stroke="none"/><text fill="#000000" stroke="none" font-family="Arial" font-size="13px" font-style="normal" font-weight="normal" text-decoration="none" x="637" y="511.5">+getName(): String</text></g></g><g transform="translate(-278,-230) scale(1,1)"><g><path fill="none" stroke="none"/><text fill="#000000" stroke="none" font-family="Arial" font-size="13px" font-style="normal" font-weight="normal" text-decoration="none" x="637" y="526.5">+setSurName(surName: String): void</text></g></g><g transform="translate(-278,-230) scale(1,1)"><g><path fill="none" stroke="none"/><text fill="#000000" stroke="none" font-family="Arial" font-size="13px" font-style="normal" font-weight="normal" text-decoration="none" x="637" y="541.5">+getSurName(): String</text></g></g><g transform="translate(-278,-230) scale(1,1)"><g><path fill="none" stroke="none"/><text fill="#000000" stroke="none" font-family="Arial" font-size="13px" font-style="normal" font-weight="normal" text-decoration="none" x="637" y="556.5">+setAge(age: int): void</text></g></g><g transform="translate(-278,-230) scale(1,1)"><g><path fill="none" stroke="none"/><text fill="#000000" stroke="none" font-family="Arial" font-size="13px" font-style="normal" font-weight="normal" text-decoration="none" x="637" y="571.5">+getAge(): int</text></g></g><g transform="translate(-278,-230) scale(1,1)"><g><path fill="none" stroke="none"/><text fill="#000000" stroke="none" font-family="Arial" font-size="13px" font-style="normal" font-weight="normal" text-decoration="none" x="637" y="586.5">+setSalary(salary: int): void</text></g></g><g transform="translate(-278,-230) scale(1,1)"><g><path fill="none" stroke="none"/><text fill="#000000" stroke="none" font-family="Arial" font-size="13px" font-style="normal" font-weight="normal" text-decoration="none" x="637" y="601.5">+getSalary(): int</text></g></g><g transform="translate(-278,-230) scale(1,1)"><g><path fill="none" stroke="none"/><text fill="#000000" stroke="none" font-family="Arial" font-size="13px" font-style="normal" font-weight="normal" text-decoration="none" x="637" y="616.5">+toString(): String</text></g></g><g transform="translate(-278,-230) scale(1,1)"><rect fill="#C0C0C0" stroke="none" x="295" y="407" width="248" height="160" opacity="0.2"/></g><g transform="translate(-278,-230) scale(1,1)"><rect fill="#ffffff" stroke="none" x="288" y="400" width="248" height="160"/></g><g transform="translate(-278,-230) scale(1,1)"><path fill="none" stroke="#000000" d="M 288 400 L 536 400 L 536 560 L 288 560 L 288 400 Z Z" stroke-miterlimit="10"/></g><g transform="translate(-278,-230) scale(1,1)"><path fill="none" stroke="#000000" d="M 288 425 L 536 425" stroke-miterlimit="10"/></g><g transform="translate(-278,-230) scale(1,1)"><path fill="none" stroke="#000000" d="M 288 448 L 536 448" stroke-miterlimit="10"/></g><g transform="translate(-278,-230) scale(1,1)"><g><path fill="none" stroke="none"/><text fill="#000000" stroke="none" font-family="Arial" font-size="13px" font-style="normal" font-weight="bold" text-decoration="none" x="349.1328125" y="419.5">EmployeeTableModel</text></g></g><g transform="translate(-278,-230) scale(1,1)"><g><path fill="none" stroke="none"/><text fill="#000000" stroke="none" font-family="Arial" font-size="13px" font-style="normal" font-weight="normal" text-decoration="none" x="293" y="442.5">+Vector[]: Employee</text></g></g><g transform="translate(-278,-230) scale(1,1)"><g><path fill="none" stroke="none"/><text fill="#000000" stroke="none" font-family="Arial" font-size="13px" font-style="normal" font-weight="normal" text-decoration="none" x="293" y="465.5">+getColumnCount(): int</text></g></g><g transform="translate(-278,-230) scale(1,1)"><g><path fill="none" stroke="none"/><text fill="#000000" stroke="none" font-family="Arial" font-size="13px" font-style="normal" font-weight="normal" text-decoration="none" x="293" y="480.5">+getRowCount(): int</text></g></g><g transform="translate(-278,-230) scale(1,1)"><g><path fill="none" stroke="none"/><text fill="#000000" stroke="none" font-family="Arial" font-size="13px" font-style="normal" font-weight="normal" text-decoration="none" x="293" y="495.5">+setValueAt()</text></g></g><g transform="translate(-278,-230) scale(1,1)"><g><path fill="none" stroke="none"/><text fill="#000000" stroke="none" font-family="Arial" font-size="13px" font-style="normal" font-weight="normal" text-decoration="none" x="293" y="510.5">+getColumnName(): String</text></g></g><g transform="translate(-278,-230) scale(1,1)"><g><path fill="none" stroke="none"/><text fill="#000000" stroke="none" font-family="Arial" font-size="13px" font-style="normal" font-weight="normal" text-decoration="none" x="293" y="525.5">+getColumnClass(): Class</text></g></g><g transform="translate(-278,-230) scale(1,1)"><g><path fill="none" stroke="none"/><text fill="#000000" stroke="none" font-family="Arial" font-size="13px" font-style="normal" font-weight="normal" text-decoration="none" x="293" y="540.5">+getValueAt(row: int, col: int): Object</text></g></g><g transform="translate(-278,-230) scale(1,1)"><rect fill="#C0C0C0" stroke="none" x="327" y="247" width="184" height="64" opacity="0.2"/></g><g transform="translate(-278,-230) scale(1,1)"><rect fill="#ffffff" stroke="none" x="320" y="240" width="184" height="64"/></g><g transform="translate(-278,-230) scale(1,1)"><path fill="none" stroke="#000000" d="M 320 240 L 504 240 L 504 304 L 320 304 L 320 240 Z Z" stroke-miterlimit="10"/></g><g transform="translate(-278,-230) scale(1,1)"><path fill="none" stroke="#000000" d="M 320 278 L 504 278" stroke-miterlimit="10"/></g><g transform="translate(-278,-230) scale(1,1)"><path fill="none" stroke="#000000" d="M 320 288 L 504 288" stroke-miterlimit="10"/></g><g transform="translate(-278,-230) scale(1,1)"><g><path fill="none" stroke="none"/><text fill="#000000" stroke="none" font-family="Arial" font-size="13px" font-style="normal" font-weight="normal" text-decoration="none" x="389.9609375" y="257.5">«class»</text></g></g><g transform="translate(-278,-230) scale(1,1)"><g><path fill="none" stroke="none"/><text fill="#000000" stroke="none" font-family="Arial" font-size="13px" font-style="normal" font-weight="bold" text-decoration="none" x="354.195068359375" y="272.5">AbstractTableModel</text></g></g><g transform="translate(-278,-230) scale(1,1)"><path fill="none" stroke="#000000" d="M 412 399 L 412 305" stroke-miterlimit="10"/></g><g transform="translate(-278,-230) scale(1,1)"><path fill="#FFFFFF" stroke="none" d="M 420.419035512032 325.3253497152483 L 412 305 L 403.580964487968 325.3253497152483"/></g><g transform="translate(-278,-230) scale(1,1)"><path fill="none" stroke="#000000" d="M 420.419035512032 325.3253497152483 L 412 305 L 403.580964487968 325.3253497152483 L 420.419035512032 325.3253497152483" stroke-miterlimit="10"/></g><g transform="translate(-278,-230) scale(1,1)"><rect fill="#C0C0C0" stroke="none" x="559" y="247" width="80.50634765625" height="57" opacity="0.2"/></g><g transform="translate(-278,-230) scale(1,1)"><rect fill="#ffffff" stroke="none" x="552" y="240" width="80.50634765625" height="57"/></g><g transform="translate(-278,-230) scale(1,1)"><path fill="none" stroke="#000000" d="M 552 240 L 632.50634765625 240 L 632.50634765625 297 L 552 297 L 552 240 Z Z" stroke-miterlimit="10"/></g><g transform="translate(-278,-230) scale(1,1)"><path fill="none" stroke="#000000" d="M 552 278 L 632.50634765625 278" stroke-miterlimit="10"/></g><g transform="translate(-278,-230) scale(1,1)"><path fill="none" stroke="#000000" d="M 552 288 L 632.50634765625 288" stroke-miterlimit="10"/></g><g transform="translate(-278,-230) scale(1,1)"><g><path fill="none" stroke="none"/><text fill="#000000" stroke="none" font-family="Arial" font-size="13px" font-style="normal" font-weight="normal" text-decoration="none" x="560.0927734375" y="257.5">«interface»</text></g></g><g transform="translate(-278,-230) scale(1,1)"><g><path fill="none" stroke="none"/><text fill="#000000" stroke="none" font-family="Arial" font-size="13px" font-style="normal" font-weight="bold" text-decoration="none" x="558.2900390625" y="272.5">TableModel</text></g></g><g transform="translate(-278,-230) scale(1,1)"><path fill="none" stroke="#000000" d="M 505 270 L 551 269" stroke-miterlimit="10" stroke-dasharray="3"/></g><g transform="translate(-278,-230) scale(1,1)"><path fill="none" stroke="#000000" d="M 540.9312153193404 273.42939894957703 L 551 269 L 540.7482360401718 265.0123521078249" stroke-miterlimit="10"/></g><g transform="translate(-278,-230) scale(1,1)"><path fill="none" stroke="#000000" d="M 537 479 L 631 479" stroke-miterlimit="10"/></g><g transform="translate(-278,-230) scale(1,1)"><path fill="#FFFFFF" stroke="none" d="M 620.8373251423759 483.209517756016 L 631 479 L 620.8373251423758 474.790482243984 L 609 479"/></g><g transform="translate(-278,-230) scale(1,1)"><path fill="none" stroke="#000000" d="M 620.8373251423759 483.209517756016 L 631 479 L 620.8373251423758 474.790482243984 L 609 479 L 620.8373251423759 483.209517756016" stroke-miterlimit="10"/></g><g transform="translate(-278,-230) scale(1,1)"><path fill="none" stroke="#000000" d="M 547.1626748576241 474.790482243984 L 537 479 L 547.1626748576241 483.209517756016" stroke-miterlimit="10"/></g></g></svg>