<svg version="1.1" xmlns="http://www.w3.org/2000/svg" xmlns:xlink="http://www.w3.org/1999/xlink" width="674.04443359375" height="604"><defs/><g><g transform="translate(-278,-174) scale(1,1)"><rect fill="#C0C0C0" stroke="none" x="639" y="335" width="248" height="301" opacity="0.2"/></g><g transform="translate(-278,-174) scale(1,1)"><rect fill="#ffffff" stroke="none" x="632" y="328" width="248" height="301"/></g><g transform="translate(-278,-174) scale(1,1)"><path fill="none" stroke="#000000" d="M 632 328 L 880 328 L 880 629 L 632 629 L 632 328 Z Z" stroke-miterlimit="10"/></g><g transform="translate(-278,-174) scale(1,1)"><path fill="none" stroke="#000000" d="M 632 366 L 880 366" stroke-miterlimit="10"/></g><g transform="translate(-278,-174) scale(1,1)"><path fill="none" stroke="#000000" d="M 632 449 L 880 449" stroke-miterlimit="10"/></g><g transform="translate(-278,-174) scale(1,1)"><g><path fill="none" stroke="none"/><text fill="#000000" stroke="none" font-family="Arial" font-size="13px" font-style="normal" font-weight="normal" text-decoration="none" x="725.648681640625" y="345.5">«abstract»</text></g></g><g transform="translate(-278,-174) scale(1,1)"><g><path fill="none" stroke="none"/><text fill="#000000" stroke="none" font-family="Arial" font-size="13px" font-style="normal" font-weight="bold" text-decoration="none" x="727.095947265625" y="360.5">Employee</text></g></g><g transform="translate(-278,-174) scale(1,1)"><g><path fill="none" stroke="none"/><text fill="#000000" stroke="none" font-family="Arial" font-size="13px" font-style="normal" font-weight="normal" text-decoration="none" x="637" y="383.5">-id: int</text></g></g><g transform="translate(-278,-174) scale(1,1)"><g><path fill="none" stroke="none"/><text fill="#000000" stroke="none" font-family="Arial" font-size="13px" font-style="normal" font-weight="normal" text-decoration="none" x="637" y="398.5">-name: String</text></g></g><g transform="translate(-278,-174) scale(1,1)"><g><path fill="none" stroke="none"/><text fill="#000000" stroke="none" font-family="Arial" font-size="13px" font-style="normal" font-weight="normal" text-decoration="none" x="637" y="413.5">-surName: String</text></g></g><g transform="translate(-278,-174) scale(1,1)"><g><path fill="none" stroke="none"/><text fill="#000000" stroke="none" font-family="Arial" font-size="13px" font-style="normal" font-weight="normal" text-decoration="none" x="637" y="428.5">-age: int</text></g></g><g transform="translate(-278,-174) scale(1,1)"><g><path fill="none" stroke="none"/><text fill="#000000" stroke="none" font-family="Arial" font-size="13px" font-style="normal" font-weight="normal" text-decoration="none" x="637" y="443.5">-salary: int</text></g></g><g transform="translate(-278,-174) scale(1,1)"><g><path fill="none" stroke="none"/><text fill="#000000" stroke="none" font-family="Arial" font-size="13px" font-style="normal" font-weight="normal" text-decoration="none" x="637" y="466.5">-setId(id: int): void</text></g></g><g transform="translate(-278,-174) scale(1,1)"><g><path fill="none" stroke="none"/><text fill="#000000" stroke="none" font-family="Arial" font-size="13px" font-style="normal" font-weight="normal" text-decoration="none" x="637" y="481.5">+getId(): int</text></g></g><g transform="translate(-278,-174) scale(1,1)"><g><path fill="none" stroke="none"/><text fill="#000000" stroke="none" font-family="Arial" font-size="13px" font-style="normal" font-weight="normal" text-decoration="none" x="637" y="496.5">+setName(name: String): void</text></g></g><g transform="translate(-278,-174) scale(1,1)"><g><path fill="none" stroke="none"/><text fill="#000000" stroke="none" font-family="Arial" font-size="13px" font-style="normal" font-weight="normal" text-decoration="none" x="637" y="511.5">+getName(): String</text></g></g><g transform="translate(-278,-174) scale(1,1)"><g><path fill="none" stroke="none"/><text fill="#000000" stroke="none" font-family="Arial" font-size="13px" font-style="normal" font-weight="normal" text-decoration="none" x="637" y="526.5">+setSurName(surName: String): void</text></g></g><g transform="translate(-278,-174) scale(1,1)"><g><path fill="none" stroke="none"/><text fill="#000000" stroke="none" font-family="Arial" font-size="13px" font-style="normal" font-weight="normal" text-decoration="none" x="637" y="541.5">+getSurName(): String</text></g></g><g transform="translate(-278,-174) scale(1,1)"><g><path fill="none" stroke="none"/><text fill="#000000" stroke="none" font-family="Arial" font-size="13px" font-style="normal" font-weight="normal" text-decoration="none" x="637" y="556.5">+setAge(age: int): void</text></g></g><g transform="translate(-278,-174) scale(1,1)"><g><path fill="none" stroke="none"/><text fill="#000000" stroke="none" font-family="Arial" font-size="13px" font-style="normal" font-weight="normal" text-decoration="none" x="637" y="571.5">+getAge(): int</text></g></g><g transform="translate(-278,-174) scale(1,1)"><g><path fill="none" stroke="none"/><text fill="#000000" stroke="none" font-family="Arial" font-size="13px" font-style="normal" font-weight="normal" text-decoration="none" x="637" y="586.5">+setSalary(salary: int): void</text></g></g><g transform="translate(-278,-174) scale(1,1)"><g><path fill="none" stroke="none"/><text fill="#000000" stroke="none" font-family="Arial" font-size="13px" font-style="normal" font-weight="normal" text-decoration="none" x="637" y="601.5">+getSalary(): int</text></g></g><g transform="translate(-278,-174) scale(1,1)"><g><path fill="none" stroke="none"/><text fill="#000000" stroke="none" font-family="Arial" font-size="13px" font-style="normal" font-weight="normal" text-decoration="none" x="637" y="616.5">+toString(): String</text></g></g><g transform="translate(-278,-174) scale(1,1)"><rect fill="#C0C0C0" stroke="none" x="295" y="407" width="248" height="160" opacity="0.2"/></g><g transform="translate(-278,-174) scale(1,1)"><rect fill="#ffffff" stroke="none" x="288" y="400" width="248" height="160"/></g><g transform="translate(-278,-174) scale(1,1)"><path fill="none" stroke="#000000" d="M 288 400 L 536 400 L 536 560 L 288 560 L 288 400 Z Z" stroke-miterlimit="10"/></g><g transform="translate(-278,-174) scale(1,1)"><path fill="none" stroke="#000000" d="M 288 425 L 536 425" stroke-miterlimit="10"/></g><g transform="translate(-278,-174) scale(1,1)"><path fill="none" stroke="#000000" d="M 288 448 L 536 448" stroke-miterlimit="10"/></g><g transform="translate(-278,-174) scale(1,1)"><g><path fill="none" stroke="none"/><text fill="#000000" stroke="none" font-family="Arial" font-size="13px" font-style="normal" font-weight="bold" text-decoration="none" x="349.1328125" y="419.5">EmployeeTableModel</text></g></g><g transform="translate(-278,-174) scale(1,1)"><g><path fill="none" stroke="none"/><text fill="#000000" stroke="none" font-family="Arial" font-size="13px" font-style="normal" font-weight="normal" text-decoration="none" x="293" y="442.5">+Vector[]: Employee</text></g></g><g transform="translate(-278,-174) scale(1,1)"><g><path fill="none" stroke="none"/><text fill="#000000" stroke="none" font-family="Arial" font-size="13px" font-style="normal" font-weight="normal" text-decoration="none" x="293" y="465.5">+getColumnCount(): int</text></g></g><g transform="translate(-278,-174) scale(1,1)"><g><path fill="none" stroke="none"/><text fill="#000000" stroke="none" font-family="Arial" font-size="13px" font-style="normal" font-weight="normal" text-decoration="none" x="293" y="480.5">+getRowCount(): int</text></g></g><g transform="translate(-278,-174) scale(1,1)"><g><path fill="none" stroke="none"/><text fill="#000000" stroke="none" font-family="Arial" font-size="13px" font-style="normal" font-weight="normal" text-decoration="none" x="293" y="495.5">+setValueAt()</text></g></g><g transform="translate(-278,-174) scale(1,1)"><g><path fill="none" stroke="none"/><text fill="#000000" stroke="none" font-family="Arial" font-size="13px" font-style="normal" font-weight="normal" text-decoration="none" x="293" y="510.5">+getColumnName(): String</text></g></g><g transform="translate(-278,-174) scale(1,1)"><g><path fill="none" stroke="none"/><text fill="#000000" stroke="none" font-family="Arial" font-size="13px" font-style="normal" font-weight="normal" text-decoration="none" x="293" y="525.5">+getColumnClass(): Class</text></g></g><g transform="translate(-278,-174) scale(1,1)"><g><path fill="none" stroke="none"/><text fill="#000000" stroke="none" font-family="Arial" font-size="13px" font-style="normal" font-weight="normal" text-decoration="none" x="293" y="540.5">+getValueAt(row: int, col: int): Object</text></g></g><g transform="translate(-278,-174) scale(1,1)"><rect fill="#C0C0C0" stroke="none" x="327" y="247" width="184" height="64" opacity="0.2"/></g><g transform="translate(-278,-174) scale(1,1)"><rect fill="#ffffff" stroke="none" x="320" y="240" width="184" height="64"/></g><g transform="translate(-278,-174) scale(1,1)"><path fill="none" stroke="#000000" d="M 320 240 L 504 240 L 504 304 L 320 304 L 320 240 Z Z" stroke-miterlimit="10"/></g><g transform="translate(-278,-174) scale(1,1)"><path fill="none" stroke="#000000" d="M 320 278 L 504 278" stroke-miterlimit="10"/></g><g transform="translate(-278,-174) scale(1,1)"><path fill="none" stroke="#000000" d="M 320 288 L 504 288" stroke-miterlimit="10"/></g><g transform="translate(-278,-174) scale(1,1)"><g><path fill="none" stroke="none"/><text fill="#000000" stroke="none" font-family="Arial" font-size="13px" font-style="normal" font-weight="normal" text-decoration="none" x="389.9609375" y="257.5">«class»</text></g></g><g transform="translate(-278,-174) scale(1,1)"><g><path fill="none" stroke="none"/><text fill="#000000" stroke="none" font-family="Arial" font-size="13px" font-style="normal" font-weight="bold" text-decoration="none" x="354.195068359375" y="272.5">AbstractTableModel</text></g></g><g transform="translate(-278,-174) scale(1,1)"><path fill="none" stroke="#000000" d="M 412 399 L 412 305" stroke-miterlimit="10"/></g><g transform="translate(-278,-174) scale(1,1)"><path fill="#FFFFFF" stroke="none" d="M 420.419035512032 325.3253497152483 L 412 305 L 403.580964487968 325.3253497152483"/></g><g transform="translate(-278,-174) scale(1,1)"><path fill="none" stroke="#000000" d="M 420.419035512032 325.3253497152483 L 412 305 L 403.580964487968 325.3253497152483 L 420.419035512032 325.3253497152483" stroke-miterlimit="10"/></g><g transform="translate(-278,-174) scale(1,1)"><rect fill="#C0C0C0" stroke="none" x="559" y="247" width="80.50634765625" height="57" opacity="0.2"/></g><g transform="translate(-278,-174) scale(1,1)"><rect fill="#ffffff" stroke="none" x="552" y="240" width="80.50634765625" height="57"/></g><g transform="translate(-278,-174) scale(1,1)"><path fill="none" stroke="#000000" d="M 552 240 L 632.50634765625 240 L 632.50634765625 297 L 552 297 L 552 240 Z Z" stroke-miterlimit="10"/></g><g transform="translate(-278,-174) scale(1,1)"><path fill="none" stroke="#000000" d="M 552 278 L 632.50634765625 278" stroke-miterlimit="10"/></g><g transform="translate(-278,-174) scale(1,1)"><path fill="none" stroke="#000000" d="M 552 288 L 632.50634765625 288" stroke-miterlimit="10"/></g><g transform="translate(-278,-174) scale(1,1)"><g><path fill="none" stroke="none"/><text fill="#000000" stroke="none" font-family="Arial" font-size="13px" font-style="normal" font-weight="normal" text-decoration="none" x="560.0927734375" y="257.5">«interface»</text></g></g><g transform="translate(-278,-174) scale(1,1)"><g><path fill="none" stroke="none"/><text fill="#000000" stroke="none" font-family="Arial" font-size="13px" font-style="normal" font-weight="bold" text-decoration="none" x="558.2900390625" y="272.5">TableModel</text></g></g><g transform="translate(-278,-174) scale(1,1)"><path fill="none" stroke="#000000" d="M 505 270 L 551 269" stroke-miterlimit="10" stroke-dasharray="3"/></g><g transform="translate(-278,-174) scale(1,1)"><path fill="none" stroke="#000000" d="M 540.9312153193404 273.42939894957703 L 551 269 L 540.7482360401718 265.0123521078249" stroke-miterlimit="10"/></g><g transform="translate(-278,-174) scale(1,1)"><rect fill="#C0C0C0" stroke="none" x="567" y="695" width="144" height="80" opacity="0.2"/></g><g transform="translate(-278,-174) scale(1,1)"><rect fill="#ffffff" stroke="none" x="560" y="688" width="144" height="80"/></g><g transform="translate(-278,-174) scale(1,1)"><path fill="none" stroke="#000000" d="M 560 688 L 704 688 L 704 768 L 560 768 L 560 688 Z Z" stroke-miterlimit="10"/></g><g transform="translate(-278,-174) scale(1,1)"><path fill="none" stroke="#000000" d="M 560 726 L 704 726" stroke-miterlimit="10"/></g><g transform="translate(-278,-174) scale(1,1)"><path fill="none" stroke="#000000" d="M 560 736 L 704 736" stroke-miterlimit="10"/></g><g transform="translate(-278,-174) scale(1,1)"><g><path fill="none" stroke="none"/><text fill="#000000" stroke="none" font-family="Arial" font-size="13px" font-style="normal" font-weight="normal" text-decoration="none" x="596.589599609375" y="705.5">«persistent»</text></g></g><g transform="translate(-278,-174) scale(1,1)"><g><path fill="none" stroke="none"/><text fill="#000000" stroke="none" font-family="Arial" font-size="13px" font-style="normal" font-weight="bold" text-decoration="none" x="578.17822265625" y="720.5">FullTimeEmployee</text></g></g><g transform="translate(-278,-174) scale(1,1)"><rect fill="#C0C0C0" stroke="none" x="823" y="695" width="126.04443359375" height="80" opacity="0.2"/></g><g transform="translate(-278,-174) scale(1,1)"><rect fill="#ffffff" stroke="none" x="816" y="688" width="126.04443359375" height="80"/></g><g transform="translate(-278,-174) scale(1,1)"><path fill="none" stroke="#000000" d="M 816 688 L 942.04443359375 688 L 942.04443359375 768 L 816 768 L 816 688 Z Z" stroke-miterlimit="10"/></g><g transform="translate(-278,-174) scale(1,1)"><path fill="none" stroke="#000000" d="M 816 726 L 942.04443359375 726" stroke-miterlimit="10"/></g><g transform="translate(-278,-174) scale(1,1)"><path fill="none" stroke="#000000" d="M 816 736 L 942.04443359375 736" stroke-miterlimit="10"/></g><g transform="translate(-278,-174) scale(1,1)"><g><path fill="none" stroke="none"/><text fill="#000000" stroke="none" font-family="Arial" font-size="13px" font-style="normal" font-weight="normal" text-decoration="none" x="843.61181640625" y="705.5">«persistent»</text></g></g><g transform="translate(-278,-174) scale(1,1)"><g><path fill="none" stroke="none"/><text fill="#000000" stroke="none" font-family="Arial" font-size="13px" font-style="normal" font-weight="bold" text-decoration="none" x="823.753173828125" y="720.5">PartTimeEmployee</text></g></g><g transform="translate(-278,-174) scale(1,1)"><path fill="none" stroke="#000000" d="M 652 687 L 681 630" stroke-miterlimit="10"/></g><g transform="translate(-278,-174) scale(1,1)"><path fill="#FFFFFF" stroke="none" d="M 679.2870243325387 651.9332103068084 L 681 630 L 664.2796215483957 644.2978650306654"/></g><g transform="translate(-278,-174) scale(1,1)"><path fill="none" stroke="#000000" d="M 679.2870243325387 651.9332103068084 L 681 630 L 664.2796215483957 644.2978650306654 L 679.2870243325387 651.9332103068084" stroke-miterlimit="10"/></g><g transform="translate(-278,-174) scale(1,1)"><path fill="none" stroke="#000000" d="M 859 687 L 831 630" stroke-miterlimit="10"/></g><g transform="translate(-278,-174) scale(1,1)"><path fill="#FFFFFF" stroke="none" d="M 847.518067293021 644.5311201530794 L 831 630 L 832.4049837965119 651.9550909934698"/></g><g transform="translate(-278,-174) scale(1,1)"><path fill="none" stroke="#000000" d="M 847.518067293021 644.5311201530794 L 831 630 L 832.4049837965119 651.9550909934698 L 847.518067293021 644.5311201530794" stroke-miterlimit="10"/></g><g transform="translate(-278,-174) scale(1,1)"><rect fill="#C0C0C0" stroke="none" x="679" y="191" width="174.1279296875" height="98" opacity="0.2"/></g><g transform="translate(-278,-174) scale(1,1)"><rect fill="#ffffff" stroke="none" x="672" y="184" width="174.1279296875" height="98"/></g><g transform="translate(-278,-174) scale(1,1)"><path fill="none" stroke="#000000" d="M 672 184 L 846.1279296875 184 L 846.1279296875 282 L 672 282 L 672 184 Z Z" stroke-miterlimit="10"/></g><g transform="translate(-278,-174) scale(1,1)"><path fill="none" stroke="#000000" d="M 672 222 L 846.1279296875 222" stroke-miterlimit="10"/></g><g transform="translate(-278,-174) scale(1,1)"><path fill="none" stroke="#000000" d="M 672 260 L 846.1279296875 260" stroke-miterlimit="10"/></g><g transform="translate(-278,-174) scale(1,1)"><g><path fill="none" stroke="none"/><text fill="#000000" stroke="none" font-family="Arial" font-size="13px" font-style="normal" font-weight="normal" text-decoration="none" x="725.81494140625" y="201.5">«singleton»</text></g></g><g transform="translate(-278,-174) scale(1,1)"><g><path fill="none" stroke="none"/><text fill="#000000" stroke="none" font-family="Arial" font-size="13px" font-style="normal" font-weight="bold" text-decoration="none" x="738.1103515625" y="216.5">Control</text></g></g><g transform="translate(-278,-174) scale(1,1)"><g><path fill="none" stroke="none"/><text fill="#000000" stroke="none" font-family="Arial" font-size="13px" font-style="normal" font-weight="normal" text-decoration="none" x="677" y="239.5">+Controll: control</text></g></g><g transform="translate(-278,-174) scale(1,1)"><g><path fill="none" stroke="none"/><text fill="#000000" stroke="none" font-family="Arial" font-size="13px" font-style="normal" font-weight="normal" text-decoration="none" x="677" y="254.5">+Employee: Set&lt;Employee&gt;</text></g></g><g transform="translate(-278,-174) scale(1,1)"><g><path fill="none" stroke="none"/><text fill="#000000" stroke="none" font-family="Arial" font-size="13px" font-style="normal" font-weight="normal" text-decoration="none" x="677" y="277.5">+getAllEmployees()</text></g></g><g transform="translate(-278,-174) scale(1,1)"><path fill="none" stroke="#000000" d="M 758 327 L 758 283" stroke-miterlimit="10"/></g><g transform="translate(-278,-174) scale(1,1)"><path fill="#000000" stroke="none" d="M 762.209517756016 293.16267485762415 L 758 283 L 753.790482243984 293.16267485762415 L 758 305"/></g><g transform="translate(-278,-174) scale(1,1)"><path fill="none" stroke="#000000" d="M 762.209517756016 293.16267485762415 L 758 283 L 753.790482243984 293.16267485762415 L 758 305 L 762.209517756016 293.16267485762415" stroke-miterlimit="10"/></g><g transform="translate(-278,-174) scale(1,1)"><path fill="none" stroke="#000000" d="M 753.790482243984 316.83732514237585 L 758 327 L 762.209517756016 316.83732514237585" stroke-miterlimit="10"/></g><g transform="translate(-278,-174) scale(1,1)"><g><path fill="none" stroke="none"/><text fill="#000000" stroke="none" font-family="Arial" font-size="13px" font-style="normal" font-weight="normal" text-decoration="none" x="767.5" y="310.5">*</text></g></g><g transform="translate(-278,-174) scale(1,1)"><path fill="none" stroke="#000000" d="M 537 479 L 631 479" stroke-miterlimit="10"/></g><g transform="translate(-278,-174) scale(1,1)"><path fill="#FFFFFF" stroke="none" d="M 620.8373251423759 483.209517756016 L 631 479 L 620.8373251423758 474.790482243984 L 609 479"/></g><g transform="translate(-278,-174) scale(1,1)"><path fill="none" stroke="#000000" d="M 620.8373251423759 483.209517756016 L 631 479 L 620.8373251423758 474.790482243984 L 609 479 L 620.8373251423759 483.209517756016" stroke-miterlimit="10"/></g><g transform="translate(-278,-174) scale(1,1)"><path fill="none" stroke="#000000" d="M 547.1626748576241 474.790482243984 L 537 479 L 547.1626748576241 483.209517756016" stroke-miterlimit="10"/></g></g></svg>